<svg height="512" viewBox="0 0 512 512" width="512" xmlns="http://www.w3.org/2000/svg"><g id="Outline"><path d="m320 480h-200a40.045 40.045 0 0 1 -40-40v-8a48.012 48.012 0 0 0 48-48 8 8 0 0 0 -8-8h-40v-16a8 8 0 0 0 -8-8h-36.456l34.607-92.273a128.373 128.373 0 0 1 47.316-60.751c2.166-1.5 4.411-2.957 6.676-4.328l-8.287-13.687c-2.544 1.54-5.068 3.177-7.5 4.863a144.311 144.311 0 0 0 -53.187 68.286l-38.66 103.08a8 8 0 0 0 7.491 10.81h40v16a8 8 0 0 0 8 8h39a32.058 32.058 0 0 1 -31 24h-8a8 8 0 0 0 -8 8v16a56.063 56.063 0 0 0 56 56h208a8 8 0 0 0 8-8v-128h-16z"/><path d="m448 16h-264a48.054 48.054 0 0 0 -48 48v208a48.054 48.054 0 0 0 48 48h85.754l-13.515 54.06a8 8 0 0 0 12.467 8.41l85.894-62.47h93.4a48.054 48.054 0 0 0 48-48v-208a48.054 48.054 0 0 0 -48-48zm32 256a32.036 32.036 0 0 1 -32 32h-96a8.006 8.006 0 0 0 -4.706 1.53l-70.194 51.05 10.66-42.64a8 8 0 0 0 -7.76-9.94h-96a32.036 32.036 0 0 1 -32-32v-208a32.036 32.036 0 0 1 32-32h264a32.036 32.036 0 0 1 32 32z"/><path d="m320 64a104 104 0 1 0 104 104 104.118 104.118 0 0 0 -104-104zm21.739 39.27c.1.238.2.489.3.73h-44.076c.1-.241.195-.492.3-.73 6.242-14.57 14.369-23.27 21.737-23.27s15.5 8.7 21.739 23.27zm8.908-17.761a88.165 88.165 0 0 1 29.686 18.491h-21.046a100.9 100.9 0 0 0 -8.64-18.491zm-63.637 74.491a185.3 185.3 0 0 1 5.6-40h54.78a185.3 185.3 0 0 1 5.6 40zm65.98 16a185.3 185.3 0 0 1 -5.6 40h-54.78a185.3 185.3 0 0 1 -5.6-40zm-72.277-72h-21.046a88.165 88.165 0 0 1 29.686-18.491 100.9 100.9 0 0 0 -8.64 18.491zm-4.68 16a206.046 206.046 0 0 0 -5.045 40h-38.621a87.439 87.439 0 0 1 13.913-40zm-5.045 56a206.046 206.046 0 0 0 5.045 40h-29.753a87.439 87.439 0 0 1 -13.913-40zm9.725 56a100.9 100.9 0 0 0 8.64 18.491 88.165 88.165 0 0 1 -29.686-18.491zm17.548.73c-.1-.238-.2-.489-.3-.73h44.074c-.1.241-.195.492-.3.73-6.235 14.57-14.367 23.27-21.735 23.27s-15.495-8.7-21.739-23.27zm61.026-.73h21.046a88.165 88.165 0 0 1 -29.686 18.491 100.9 100.9 0 0 0 8.64-18.491zm4.68-16a206.046 206.046 0 0 0 5.045-40h38.621a87.439 87.439 0 0 1 -13.913 40zm5.045-56a206.046 206.046 0 0 0 -5.045-40h29.753a87.439 87.439 0 0 1 13.913 40z"/><path d="m166.111 64h35.777v16h-35.777z" transform="matrix(.447 -.894 .894 .447 37.307 204.367)"/><path d="m198.111 64h35.777v16h-35.777z" transform="matrix(.447 -.894 .894 .447 55.003 232.997)"/><path d="m398.111 256h35.777v16h-35.777z" transform="matrix(.447 -.894 .894 .447 -6.184 517.994)"/><path d="m430.111 256h35.777v16h-35.777z" transform="matrix(.447 -.894 .894 .447 11.504 546.615)"/></g></svg>